{
  "header": {
    "keySignatures": [],
    "meta": [],
    "name": "",
    "ppq": 384,
    "tempos": [
      {
        "bpm": 142.0000710000355,
        "ticks": 1536
      }
    ],
    "timeSignatures": [
      {
        "ticks": 1536,
        "timeSignature": [
          4,
          4
        ],
        "measures": 0
      }
    ]
  },
  "tracks": [
    {
      "channel": 1,
      "controlChanges": {
        "10": [
          {
            "number": 10,
            "ticks": 0,
            "time": 0,
            "value": 0
          }
        ]
      },
      "pitchBends": [],
      "instrument": {
        "family": "synth lead",
        "number": 80,
        "name": "lead 1 (square)"
      },
      "name": "Smooth Synth",
      "notes": [
        {
          "duration": 0.6901400000000002,
          "durationTicks": 768,
          "midi": 76,
          "name": "E5",
          "ticks": 768,
          "time": 1,
          "velocity": 0.3937007874015748
        },
        {
          "duration": 0.8450700000000002,
          "durationTicks": 768,
          "midi": 78,
          "name": "F#5",
          "ticks": 2304,
          "time": 2.53521,
          "velocity": 0.3937007874015748
        },
        {
          "duration": 0.6338025000000003,
          "durationTicks": 576,
          "midi": 79,
          "name": "G5",
          "ticks": 2688,
          "time": 2.957745,
          "velocity": 0.3937007874015748
        },
        {
          "duration": 0.8450700000000002,
          "durationTicks": 768,
          "midi": 78,
          "name": "F#5",
          "ticks": 2880,
          "time": 3.1690125000000005,
          "velocity": 0.3937007874015748
        },
        {
          "duration": 0.6338025000000003,
          "durationTicks": 576,
          "midi": 76,
          "name": "E5",
          "ticks": 3264,
          "time": 3.5915475000000003,
          "velocity": 0.3937007874015748
        },
        {
          "duration": 0.8450699999999998,
          "durationTicks": 768,
          "midi": 74,
          "name": "D5",
          "ticks": 3456,
          "time": 3.8028150000000007,
          "velocity": 0.3937007874015748
        },
        {
          "duration": 0.6338024999999998,
          "durationTicks": 576,
          "midi": 71,
          "name": "B4",
          "ticks": 3840,
          "time": 4.225350000000001,
          "velocity": 0.3937007874015748
        },
        {
          "duration": 0.6338024999999998,
          "durationTicks": 576,
          "midi": 74,
          "name": "D5",
          "ticks": 5184,
          "time": 5.704222500000001,
          "velocity": 0.3937007874015748
        },
        {
          "duration": 0.8450699999999998,
          "durationTicks": 768,
          "midi": 69,
          "name": "A4",
          "ticks": 5376,
          "time": 5.915490000000001,
          "velocity": 0.3937007874015748
        },
        {
          "duration": 0.8450699999999998,
          "durationTicks": 768,
          "midi": 76,
          "name": "E5",
          "ticks": 6912,
          "time": 7.6056300000000014,
          "velocity": 0.3937007874015748
        },
        {
          "duration": 0.8450699999999998,
          "durationTicks": 768,
          "midi": 78,
          "name": "F#5",
          "ticks": 8448,
          "time": 9.295770000000001,
          "velocity": 0.3937007874015748
        },
        {
          "duration": 0.6338024999999998,
          "durationTicks": 576,
          "midi": 79,
          "name": "G5",
          "ticks": 8832,
          "time": 9.718305,
          "velocity": 0.3937007874015748
        },
        {
          "duration": 0.8450699999999998,
          "durationTicks": 768,
          "midi": 78,
          "name": "F#5",
          "ticks": 9024,
          "time": 9.9295725,
          "velocity": 0.3937007874015748
        },
        {
          "duration": 0.6338024999999998,
          "durationTicks": 576,
          "midi": 76,
          "name": "E5",
          "ticks": 9408,
          "time": 10.3521075,
          "velocity": 0.3937007874015748
        },
        {
          "duration": 0.8450699999999998,
          "durationTicks": 768,
          "midi": 74,
          "name": "D5",
          "ticks": 9600,
          "time": 10.563375,
          "velocity": 0.3937007874015748
        },
        {
          "duration": 0.6338024999999998,
          "durationTicks": 576,
          "midi": 71,
          "name": "B4",
          "ticks": 9984,
          "time": 10.98591,
          "velocity": 0.3937007874015748
        },
        {
          "duration": 0.21126749999999994,
          "durationTicks": 192,
          "midi": 74,
          "name": "D5",
          "ticks": 11328,
          "time": 12.4647825,
          "velocity": 0.3937007874015748
        },
        {
          "duration": 1.6901400000000013,
          "durationTicks": 1536,
          "midi": 69,
          "name": "A4",
          "ticks": 11520,
          "time": 12.67605,
          "velocity": 0.3937007874015748
        },
        {
          "duration": 1.6901400000000013,
          "durationTicks": 1536,
          "midi": 62,
          "name": "D4",
          "ticks": 13056,
          "time": 14.366190000000001,
          "velocity": 0.3937007874015748
        },
        {
          "duration": 1.6901399999999995,
          "durationTicks": 1536,
          "midi": 69,
          "name": "A4",
          "ticks": 14592,
          "time": 16.056330000000003,
          "velocity": 0.3937007874015748
        },
        {
          "duration": 1.6901399999999995,
          "durationTicks": 1536,
          "midi": 74,
          "name": "D5",
          "ticks": 16128,
          "time": 17.746470000000002,
          "velocity": 0.3937007874015748
        },
        {
          "duration": 1.6901399999999995,
          "durationTicks": 1536,
          "midi": 69,
          "name": "A4",
          "ticks": 17664,
          "time": 19.43661,
          "velocity": 0.3937007874015748
        },
        {
          "duration": 1.6901399999999995,
          "durationTicks": 1536,
          "midi": 62,
          "name": "D4",
          "ticks": 19200,
          "time": 21.12675,
          "velocity": 0.3937007874015748
        },
        {
          "duration": 1.690140000000003,
          "durationTicks": 1536,
          "midi": 69,
          "name": "A4",
          "ticks": 20736,
          "time": 22.81689,
          "velocity": 0.3937007874015748
        },
        {
          "duration": 1.6901399999999995,
          "durationTicks": 1536,
          "midi": 74,
          "name": "D5",
          "ticks": 22272,
          "time": 24.507030000000004,
          "velocity": 0.3937007874015748
        },
        {
          "duration": 1.6901399999999995,
          "durationTicks": 1536,
          "midi": 69,
          "name": "A4",
          "ticks": 23808,
          "time": 26.197170000000003,
          "velocity": 0.3937007874015748
        },
        {
          "duration": 1.6901399999999995,
          "durationTicks": 1536,
          "midi": 62,
          "name": "D4",
          "ticks": 25344,
          "time": 27.887310000000003,
          "velocity": 0.3937007874015748
        },
        {
          "duration": 1.6901399999999995,
          "durationTicks": 1536,
          "midi": 69,
          "name": "A4",
          "ticks": 26880,
          "time": 29.577450000000002,
          "velocity": 0.3937007874015748
        },
        {
          "duration": 1.690140000000003,
          "durationTicks": 1536,
          "midi": 67,
          "name": "G4",
          "ticks": 28416,
          "time": 31.267590000000002,
          "velocity": 0.3937007874015748
        },
        {
          "duration": 1.6901399999999995,
          "durationTicks": 1536,
          "midi": 74,
          "name": "D5",
          "ticks": 29952,
          "time": 32.957730000000005,
          "velocity": 0.3937007874015748
        },
        {
          "duration": 1.6901399999999995,
          "durationTicks": 1536,
          "midi": 76,
          "name": "E5",
          "ticks": 31488,
          "time": 34.647870000000005,
          "velocity": 0.3937007874015748
        },
        {
          "duration": 0.42253499999999633,
          "durationTicks": 384,
          "midi": 78,
          "name": "F#5",
          "ticks": 33024,
          "time": 36.338010000000004,
          "velocity": 0.3937007874015748
        },
        {
          "duration": 0.21126750000000527,
          "durationTicks": 192,
          "midi": 79,
          "name": "G5",
          "ticks": 33408,
          "time": 36.760545,
          "velocity": 0.3937007874015748
        },
        {
          "duration": 0.42253499999999633,
          "durationTicks": 384,
          "midi": 78,
          "name": "F#5",
          "ticks": 33600,
          "time": 36.971812500000006,
          "velocity": 0.3937007874015748
        },
        {
          "duration": 0.21126749999999817,
          "durationTicks": 192,
          "midi": 76,
          "name": "E5",
          "ticks": 33984,
          "time": 37.3943475,
          "velocity": 0.3937007874015748
        },
        {
          "duration": 0.42253500000000344,
          "durationTicks": 384,
          "midi": 74,
          "name": "D5",
          "ticks": 34176,
          "time": 37.605615,
          "velocity": 0.3937007874015748
        },
        {
          "duration": 1.4788725000000014,
          "durationTicks": 1344,
          "midi": 71,
          "name": "B4",
          "ticks": 34560,
          "time": 38.028150000000004,
          "velocity": 0.3937007874015748
        },
        {
          "duration": 0.21126749999999817,
          "durationTicks": 192,
          "midi": 74,
          "name": "D5",
          "ticks": 35904,
          "time": 39.507022500000005,
          "velocity": 0.3937007874015748
        },
        {
          "duration": 1.6901399999999995,
          "durationTicks": 1536,
          "midi": 69,
          "name": "A4",
          "ticks": 36096,
          "time": 39.71829,
          "velocity": 0.3937007874015748
        },
        {
          "duration": 1.6901399999999995,
          "durationTicks": 1536,
          "midi": 76,
          "name": "E5",
          "ticks": 37632,
          "time": 41.40843,
          "velocity": 0.3937007874015748
        },
        {
          "duration": 0.42253500000000344,
          "durationTicks": 384,
          "midi": 78,
          "name": "F#5",
          "ticks": 39168,
          "time": 43.09857,
          "velocity": 0.3937007874015748
        },
        {
          "duration": 0.21126749999999817,
          "durationTicks": 192,
          "midi": 79,
          "name": "G5",
          "ticks": 39552,
          "time": 43.521105000000006,
          "velocity": 0.3937007874015748
        },
        {
          "duration": 0.42253500000000344,
          "durationTicks": 384,
          "midi": 78,
          "name": "F#5",
          "ticks": 39744,
          "time": 43.732372500000004,
          "velocity": 0.3937007874015748
        },
        {
          "duration": 0.21126749999999817,
          "durationTicks": 192,
          "midi": 76,
          "name": "E5",
          "ticks": 40128,
          "time": 44.15490750000001,
          "velocity": 0.3937007874015748
        },
        {
          "duration": 0.42253499999999633,
          "durationTicks": 384,
          "midi": 74,
          "name": "D5",
          "ticks": 40320,
          "time": 44.366175000000005,
          "velocity": 0.3937007874015748
        },
        {
          "duration": 1.4788725000000014,
          "durationTicks": 1344,
          "midi": 71,
          "name": "B4",
          "ticks": 40704,
          "time": 44.78871,
          "velocity": 0.3937007874015748
        },
        {
          "duration": 0.21126749999999817,
          "durationTicks": 192,
          "midi": 74,
          "name": "D5",
          "ticks": 42048,
          "time": 46.2675825,
          "velocity": 0.3937007874015748
        },
        {
          "duration": 1.6901400000000066,
          "durationTicks": 1536,
          "midi": 69,
          "name": "A4",
          "ticks": 42240,
          "time": 46.47885,
          "velocity": 0.3937007874015748
        },
        {
          "duration": 1.6901399999999995,
          "durationTicks": 1536,
          "midi": 62,
          "name": "D4",
          "ticks": 43776,
          "time": 48.16899000000001,
          "velocity": 0.3937007874015748
        },
        {
          "duration": 1.6901399999999995,
          "durationTicks": 1536,
          "midi": 69,
          "name": "A4",
          "ticks": 45312,
          "time": 49.85913000000001,
          "velocity": 0.3937007874015748
        },
        {
          "duration": 1.6901399999999995,
          "durationTicks": 1536,
          "midi": 74,
          "name": "D5",
          "ticks": 46848,
          "time": 51.54927000000001,
          "velocity": 0.3937007874015748
        },
        {
          "duration": 1.6901399999999995,
          "durationTicks": 1536,
          "midi": 69,
          "name": "A4",
          "ticks": 48384,
          "time": 53.23941000000001,
          "velocity": 0.3937007874015748
        },
        {
          "duration": 1.6901399999999995,
          "durationTicks": 1536,
          "midi": 62,
          "name": "D4",
          "ticks": 49920,
          "time": 54.929550000000006,
          "velocity": 0.3937007874015748
        },
        {
          "duration": 1.6901399999999995,
          "durationTicks": 1536,
          "midi": 69,
          "name": "A4",
          "ticks": 51456,
          "time": 56.619690000000006,
          "velocity": 0.3937007874015748
        },
        {
          "duration": 1.6901399999999995,
          "durationTicks": 1536,
          "midi": 74,
          "name": "D5",
          "ticks": 52992,
          "time": 58.309830000000005,
          "velocity": 0.3937007874015748
        },
        {
          "duration": 1.6901399999999995,
          "durationTicks": 1536,
          "midi": 69,
          "name": "A4",
          "ticks": 54528,
          "time": 59.999970000000005,
          "velocity": 0.3937007874015748
        },
        {
          "duration": 1.6901399999999995,
          "durationTicks": 1536,
          "midi": 62,
          "name": "D4",
          "ticks": 56064,
          "time": 61.690110000000004,
          "velocity": 0.3937007874015748
        },
        {
          "duration": 1.6901400000000137,
          "durationTicks": 1536,
          "midi": 69,
          "name": "A4",
          "ticks": 57600,
          "time": 63.380250000000004,
          "velocity": 0.3937007874015748
        },
        {
          "duration": 1.6901399999999853,
          "durationTicks": 1536,
          "midi": 74,
          "name": "D5",
          "ticks": 59136,
          "time": 65.07039000000002,
          "velocity": 0.3937007874015748
        },
        {
          "duration": 1.6901399999999995,
          "durationTicks": 1536,
          "midi": 69,
          "name": "A4",
          "ticks": 60672,
          "time": 66.76053,
          "velocity": 0.3937007874015748
        },
        {
          "duration": 1.6901399999999995,
          "durationTicks": 1536,
          "midi": 62,
          "name": "D4",
          "ticks": 62208,
          "time": 68.45067,
          "velocity": 0.3937007874015748
        },
        {
          "duration": 1.6901399999999995,
          "durationTicks": 1536,
          "midi": 69,
          "name": "A4",
          "ticks": 63744,
          "time": 70.14081,
          "velocity": 0.3937007874015748
        },
        {
          "duration": 1.6901399999999995,
          "durationTicks": 1536,
          "midi": 67,
          "name": "G4",
          "ticks": 65280,
          "time": 71.83095,
          "velocity": 0.3937007874015748
        },
        {
          "duration": 1.6901400000000137,
          "durationTicks": 1536,
          "midi": 74,
          "name": "D5",
          "ticks": 66816,
          "time": 73.52109,
          "velocity": 0.3937007874015748
        },
        {
          "duration": 1.6901399999999995,
          "durationTicks": 1536,
          "midi": 76,
          "name": "E5",
          "ticks": 68352,
          "time": 75.21123000000001,
          "velocity": 0.3937007874015748
        },
        {
          "duration": 0.42253499999999633,
          "durationTicks": 384,
          "midi": 78,
          "name": "F#5",
          "ticks": 69888,
          "time": 76.90137000000001,
          "velocity": 0.3937007874015748
        },
        {
          "duration": 0.21126749999999106,
          "durationTicks": 192,
          "midi": 79,
          "name": "G5",
          "ticks": 70272,
          "time": 77.32390500000001,
          "velocity": 0.3937007874015748
        },
        {
          "duration": 0.42253500000001054,
          "durationTicks": 384,
          "midi": 78,
          "name": "F#5",
          "ticks": 70464,
          "time": 77.5351725,
          "velocity": 0.3937007874015748
        },
        {
          "duration": 0.21126749999999106,
          "durationTicks": 192,
          "midi": 76,
          "name": "E5",
          "ticks": 70848,
          "time": 77.95770750000001,
          "velocity": 0.3937007874015748
        },
        {
          "duration": 0.42253500000001054,
          "durationTicks": 384,
          "midi": 74,
          "name": "D5",
          "ticks": 71040,
          "time": 78.168975,
          "velocity": 0.3937007874015748
        },
        {
          "duration": 1.4788724999999943,
          "durationTicks": 1344,
          "midi": 71,
          "name": "B4",
          "ticks": 71424,
          "time": 78.59151000000001,
          "velocity": 0.3937007874015748
        },
        {
          "duration": 0.21126750000000527,
          "durationTicks": 192,
          "midi": 74,
          "name": "D5",
          "ticks": 72768,
          "time": 80.07038250000001,
          "velocity": 0.3937007874015748
        },
        {
          "duration": 1.6901399999999995,
          "durationTicks": 1536,
          "midi": 69,
          "name": "A4",
          "ticks": 72960,
          "time": 80.28165000000001,
          "velocity": 0.3937007874015748
        },
        {
          "duration": 1.6901399999999995,
          "durationTicks": 1536,
          "midi": 76,
          "name": "E5",
          "ticks": 74496,
          "time": 81.97179000000001,
          "velocity": 0.3937007874015748
        },
        {
          "duration": 0.42253499999999633,
          "durationTicks": 384,
          "midi": 78,
          "name": "F#5",
          "ticks": 76032,
          "time": 83.66193000000001,
          "velocity": 0.3937007874015748
        },
        {
          "duration": 0.21126750000000527,
          "durationTicks": 192,
          "midi": 79,
          "name": "G5",
          "ticks": 76416,
          "time": 84.08446500000001,
          "velocity": 0.3937007874015748
        },
        {
          "duration": 0.42253499999999633,
          "durationTicks": 384,
          "midi": 78,
          "name": "F#5",
          "ticks": 76608,
          "time": 84.29573250000001,
          "velocity": 0.3937007874015748
        },
        {
          "duration": 0.21126750000000527,
          "durationTicks": 192,
          "midi": 76,
          "name": "E5",
          "ticks": 76992,
          "time": 84.71826750000001,
          "velocity": 0.3937007874015748
        },
        {
          "duration": 0.42253499999999633,
          "durationTicks": 384,
          "midi": 74,
          "name": "D5",
          "ticks": 77184,
          "time": 84.92953500000002,
          "velocity": 0.3937007874015748
        },
        {
          "duration": 1.4788724999999943,
          "durationTicks": 1344,
          "midi": 71,
          "name": "B4",
          "ticks": 77568,
          "time": 85.35207000000001,
          "velocity": 0.3937007874015748
        },
        {
          "duration": 0.21126750000000527,
          "durationTicks": 192,
          "midi": 74,
          "name": "D5",
          "ticks": 78912,
          "time": 86.8309425,
          "velocity": 0.3937007874015748
        },
        {
          "duration": 1.6901399999999995,
          "durationTicks": 1536,
          "midi": 69,
          "name": "A4",
          "ticks": 79104,
          "time": 87.04221000000001,
          "velocity": 0.3937007874015748
        },
        {
          "duration": 1.6901399999999995,
          "durationTicks": 1536,
          "midi": 76,
          "name": "E5",
          "ticks": 104448,
          "time": 114.92952000000001,
          "velocity": 0.3937007874015748
        },
        {
          "duration": 0.42253499999999633,
          "durationTicks": 384,
          "midi": 78,
          "name": "F#5",
          "ticks": 105984,
          "time": 116.61966000000001,
          "velocity": 0.3937007874015748
        },
        {
          "duration": 0.21126750000000527,
          "durationTicks": 192,
          "midi": 79,
          "name": "G5",
          "ticks": 106368,
          "time": 117.042195,
          "velocity": 0.3937007874015748
        },
        {
          "duration": 0.42253499999999633,
          "durationTicks": 384,
          "midi": 78,
          "name": "F#5",
          "ticks": 106560,
          "time": 117.25346250000001,
          "velocity": 0.3937007874015748
        },
        {
          "duration": 0.21126750000000527,
          "durationTicks": 192,
          "midi": 76,
          "name": "E5",
          "ticks": 106944,
          "time": 117.67599750000001,
          "velocity": 0.3937007874015748
        },
        {
          "duration": 0.42253499999999633,
          "durationTicks": 384,
          "midi": 74,
          "name": "D5",
          "ticks": 107136,
          "time": 117.88726500000001,
          "velocity": 0.3937007874015748
        },
        {
          "duration": 1.4788725000000085,
          "durationTicks": 1344,
          "midi": 71,
          "name": "B4",
          "ticks": 107520,
          "time": 118.30980000000001,
          "velocity": 0.3937007874015748
        },
        {
          "duration": 0.21126749999999106,
          "durationTicks": 192,
          "midi": 74,
          "name": "D5",
          "ticks": 108864,
          "time": 119.78867250000002,
          "velocity": 0.3937007874015748
        },
        {
          "duration": 1.6901399999999995,
          "durationTicks": 1536,
          "midi": 69,
          "name": "A4",
          "ticks": 109056,
          "time": 119.99994000000001,
          "velocity": 0.3937007874015748
        },
        {
          "duration": 1.6901399999999995,
          "durationTicks": 1536,
          "midi": 76,
          "name": "E5",
          "ticks": 110592,
          "time": 121.69008000000001,
          "velocity": 0.3937007874015748
        },
        {
          "duration": 0.42253500000001054,
          "durationTicks": 384,
          "midi": 78,
          "name": "F#5",
          "ticks": 112128,
          "time": 123.38022000000001,
          "velocity": 0.3937007874015748
        },
        {
          "duration": 0.21126749999999106,
          "durationTicks": 192,
          "midi": 79,
          "name": "G5",
          "ticks": 112512,
          "time": 123.80275500000002,
          "velocity": 0.3937007874015748
        },
        {
          "duration": 0.42253500000001054,
          "durationTicks": 384,
          "midi": 78,
          "name": "F#5",
          "ticks": 112704,
          "time": 124.01402250000001,
          "velocity": 0.3937007874015748
        },
        {
          "duration": 0.21126749999999106,
          "durationTicks": 192,
          "midi": 76,
          "name": "E5",
          "ticks": 113088,
          "time": 124.43655750000002,
          "velocity": 0.3937007874015748
        },
        {
          "duration": 0.42253499999999633,
          "durationTicks": 384,
          "midi": 74,
          "name": "D5",
          "ticks": 113280,
          "time": 124.64782500000001,
          "velocity": 0.3937007874015748
        },
        {
          "duration": 1.4788725000000085,
          "durationTicks": 1344,
          "midi": 71,
          "name": "B4",
          "ticks": 113664,
          "time": 125.07036000000001,
          "velocity": 0.3937007874015748
        },
        {
          "duration": 0.21126749999999106,
          "durationTicks": 192,
          "midi": 74,
          "name": "D5",
          "ticks": 115008,
          "time": 126.54923250000002,
          "velocity": 0.3937007874015748
        },
        {
          "duration": 1.6901400000000137,
          "durationTicks": 1536,
          "midi": 69,
          "name": "A4",
          "ticks": 115200,
          "time": 126.76050000000001,
          "velocity": 0.3937007874015748
        },
        {
          "duration": 1.6901400000000137,
          "durationTicks": 1536,
          "midi": 62,
          "name": "D4",
          "ticks": 116736,
          "time": 128.45064000000002,
          "velocity": 0.3937007874015748
        },
        {
          "duration": 1.6901399999999853,
          "durationTicks": 1536,
          "midi": 69,
          "name": "A4",
          "ticks": 118272,
          "time": 130.14078000000003,
          "velocity": 0.3937007874015748
        },
        {
          "duration": 1.6901400000000137,
          "durationTicks": 1536,
          "midi": 74,
          "name": "D5",
          "ticks": 119808,
          "time": 131.83092000000002,
          "velocity": 0.3937007874015748
        },
        {
          "duration": 1.6901399999999853,
          "durationTicks": 1536,
          "midi": 69,
          "name": "A4",
          "ticks": 121344,
          "time": 133.52106000000003,
          "velocity": 0.3937007874015748
        },
        {
          "duration": 1.6901400000000137,
          "durationTicks": 1536,
          "midi": 62,
          "name": "D4",
          "ticks": 122880,
          "time": 135.21120000000002,
          "velocity": 0.3937007874015748
        },
        {
          "duration": 1.6901399999999853,
          "durationTicks": 1536,
          "midi": 69,
          "name": "A4",
          "ticks": 124416,
          "time": 136.90134000000003,
          "velocity": 0.3937007874015748
        },
        {
          "duration": 1.6901400000000137,
          "durationTicks": 1536,
          "midi": 74,
          "name": "D5",
          "ticks": 125952,
          "time": 138.59148000000002,
          "velocity": 0.3937007874015748
        },
        {
          "duration": 1.6901399999999853,
          "durationTicks": 1536,
          "midi": 69,
          "name": "A4",
          "ticks": 127488,
          "time": 140.28162000000003,
          "velocity": 0.3937007874015748
        },
        {
          "duration": 1.6901400000000137,
          "durationTicks": 1536,
          "midi": 62,
          "name": "D4",
          "ticks": 129024,
          "time": 141.97176000000002,
          "velocity": 0.3937007874015748
        },
        {
          "duration": 1.6901399999999853,
          "durationTicks": 1536,
          "midi": 69,
          "name": "A4",
          "ticks": 130560,
          "time": 143.66190000000003,
          "velocity": 0.3937007874015748
        },
        {
          "duration": 1.6901400000000137,
          "durationTicks": 1536,
          "midi": 67,
          "name": "G4",
          "ticks": 132096,
          "time": 145.35204000000002,
          "velocity": 0.3937007874015748
        },
        {
          "duration": 1.6901400000000137,
          "durationTicks": 1536,
          "midi": 74,
          "name": "D5",
          "ticks": 133632,
          "time": 147.04218000000003,
          "velocity": 0.3937007874015748
        },
        {
          "duration": 1.6901399999999853,
          "durationTicks": 1536,
          "midi": 76,
          "name": "E5",
          "ticks": 135168,
          "time": 148.73232000000004,
          "velocity": 0.3937007874015748
        },
        {
          "duration": 0.42253500000001054,
          "durationTicks": 384,
          "midi": 78,
          "name": "F#5",
          "ticks": 136704,
          "time": 150.42246000000003,
          "velocity": 0.3937007874015748
        },
        {
          "duration": 0.21126749999999106,
          "durationTicks": 192,
          "midi": 79,
          "name": "G5",
          "ticks": 137088,
          "time": 150.84499500000004,
          "velocity": 0.3937007874015748
        },
        {
          "duration": 0.42253500000001054,
          "durationTicks": 384,
          "midi": 78,
          "name": "F#5",
          "ticks": 137280,
          "time": 151.05626250000003,
          "velocity": 0.3937007874015748
        },
        {
          "duration": 0.21126749999999106,
          "durationTicks": 192,
          "midi": 76,
          "name": "E5",
          "ticks": 137664,
          "time": 151.47879750000004,
          "velocity": 0.3937007874015748
        },
        {
          "duration": 0.42253500000001054,
          "durationTicks": 384,
          "midi": 74,
          "name": "D5",
          "ticks": 137856,
          "time": 151.69006500000003,
          "velocity": 0.3937007874015748
        },
        {
          "duration": 1.4788724999999943,
          "durationTicks": 1344,
          "midi": 71,
          "name": "B4",
          "ticks": 138240,
          "time": 152.11260000000004,
          "velocity": 0.3937007874015748
        },
        {
          "duration": 0.21126749999999106,
          "durationTicks": 192,
          "midi": 74,
          "name": "D5",
          "ticks": 139584,
          "time": 153.59147250000004,
          "velocity": 0.3937007874015748
        },
        {
          "duration": 1.6901400000000137,
          "durationTicks": 1536,
          "midi": 69,
          "name": "A4",
          "ticks": 139776,
          "time": 153.80274000000003,
          "velocity": 0.3937007874015748
        },
        {
          "duration": 1.6901399999999853,
          "durationTicks": 1536,
          "midi": 76,
          "name": "E5",
          "ticks": 141312,
          "time": 155.49288000000004,
          "velocity": 0.3937007874015748
        },
        {
          "duration": 0.42253500000001054,
          "durationTicks": 384,
          "midi": 78,
          "name": "F#5",
          "ticks": 142848,
          "time": 157.18302000000003,
          "velocity": 0.3937007874015748
        },
        {
          "duration": 0.21126749999999106,
          "durationTicks": 192,
          "midi": 79,
          "name": "G5",
          "ticks": 143232,
          "time": 157.60555500000004,
          "velocity": 0.3937007874015748
        },
        {
          "duration": 0.42253500000001054,
          "durationTicks": 384,
          "midi": 78,
          "name": "F#5",
          "ticks": 143424,
          "time": 157.81682250000003,
          "velocity": 0.3937007874015748
        },
        {
          "duration": 0.21126749999999106,
          "durationTicks": 192,
          "midi": 76,
          "name": "E5",
          "ticks": 143808,
          "time": 158.23935750000004,
          "velocity": 0.3937007874015748
        },
        {
          "duration": 0.42253500000001054,
          "durationTicks": 384,
          "midi": 74,
          "name": "D5",
          "ticks": 144000,
          "time": 158.45062500000003,
          "velocity": 0.3937007874015748
        },
        {
          "duration": 1.4788724999999943,
          "durationTicks": 1344,
          "midi": 71,
          "name": "B4",
          "ticks": 144384,
          "time": 158.87316000000004,
          "velocity": 0.3937007874015748
        },
        {
          "duration": 0.21126749999999106,
          "durationTicks": 192,
          "midi": 74,
          "name": "D5",
          "ticks": 145728,
          "time": 160.35203250000004,
          "velocity": 0.3937007874015748
        },
        {
          "duration": 1.6901400000000137,
          "durationTicks": 1536,
          "midi": 69,
          "name": "A4",
          "ticks": 145920,
          "time": 160.56330000000003,
          "velocity": 0.3937007874015748
        },
        {
          "duration": 1.6901399999999853,
          "durationTicks": 1536,
          "midi": 76,
          "name": "E5",
          "ticks": 147456,
          "time": 162.25344000000004,
          "velocity": 0.3937007874015748
        },
        {
          "duration": 0.42253500000001054,
          "durationTicks": 384,
          "midi": 78,
          "name": "F#5",
          "ticks": 148992,
          "time": 163.94358000000003,
          "velocity": 0.3937007874015748
        },
        {
          "duration": 0.21126749999999106,
          "durationTicks": 192,
          "midi": 79,
          "name": "G5",
          "ticks": 149376,
          "time": 164.36611500000004,
          "velocity": 0.3937007874015748
        },
        {
          "duration": 0.42253500000001054,
          "durationTicks": 384,
          "midi": 78,
          "name": "F#5",
          "ticks": 149568,
          "time": 164.57738250000003,
          "velocity": 0.3937007874015748
        },
        {
          "duration": 0.21126749999999106,
          "durationTicks": 192,
          "midi": 76,
          "name": "E5",
          "ticks": 149952,
          "time": 164.99991750000004,
          "velocity": 0.3937007874015748
        },
        {
          "duration": 0.42253500000001054,
          "durationTicks": 384,
          "midi": 74,
          "name": "D5",
          "ticks": 150144,
          "time": 165.21118500000003,
          "velocity": 0.3937007874015748
        },
        {
          "duration": 1.4788724999999943,
          "durationTicks": 1344,
          "midi": 71,
          "name": "B4",
          "ticks": 150528,
          "time": 165.63372000000004,
          "velocity": 0.3937007874015748
        },
        {
          "duration": 0.21126749999999106,
          "durationTicks": 192,
          "midi": 74,
          "name": "D5",
          "ticks": 151872,
          "time": 167.11259250000003,
          "velocity": 0.3937007874015748
        },
        {
          "duration": 1.6901400000000137,
          "durationTicks": 1536,
          "midi": 69,
          "name": "A4",
          "ticks": 152064,
          "time": 167.32386000000002,
          "velocity": 0.3937007874015748
        },
        {
          "duration": 1.6901399999999853,
          "durationTicks": 1536,
          "midi": 76,
          "name": "E5",
          "ticks": 153600,
          "time": 169.01400000000004,
          "velocity": 0.3937007874015748
        },
        {
          "duration": 0.42253500000001054,
          "durationTicks": 384,
          "midi": 78,
          "name": "F#5",
          "ticks": 155136,
          "time": 170.70414000000002,
          "velocity": 0.3937007874015748
        },
        {
          "duration": 0.21126749999999106,
          "durationTicks": 192,
          "midi": 79,
          "name": "G5",
          "ticks": 155520,
          "time": 171.12667500000003,
          "velocity": 0.3937007874015748
        },
        {
          "duration": 0.42253500000001054,
          "durationTicks": 384,
          "midi": 78,
          "name": "F#5",
          "ticks": 155712,
          "time": 171.33794250000003,
          "velocity": 0.3937007874015748
        },
        {
          "duration": 0.21126749999999106,
          "durationTicks": 192,
          "midi": 76,
          "name": "E5",
          "ticks": 156096,
          "time": 171.76047750000004,
          "velocity": 0.3937007874015748
        },
        {
          "duration": 0.42253500000001054,
          "durationTicks": 384,
          "midi": 74,
          "name": "D5",
          "ticks": 156288,
          "time": 171.97174500000003,
          "velocity": 0.3937007874015748
        },
        {
          "duration": 1.4788724999999943,
          "durationTicks": 1344,
          "midi": 71,
          "name": "B4",
          "ticks": 156672,
          "time": 172.39428000000004,
          "velocity": 0.3937007874015748
        },
        {
          "duration": 0.21126749999999106,
          "durationTicks": 192,
          "midi": 74,
          "name": "D5",
          "ticks": 158016,
          "time": 173.87315250000003,
          "velocity": 0.3937007874015748
        },
        {
          "duration": 1.6901400000000137,
          "durationTicks": 1536,
          "midi": 69,
          "name": "A4",
          "ticks": 158208,
          "time": 174.08442000000002,
          "velocity": 0.3937007874015748
        }
      ],
      "endOfTrackTicks": 159744
    }
  ]
}
